<svg xmlns="http://www.w3.org/2000/svg" version="1.1" xmlns:xlink="http://www.w3.org/1999/xlink" xmlns:svgjs="http://svgjs.com/svgjs" id="Pattern1238SvgRootPreview" width="100%" height="100%"><defs><pattern x="0" y="0" width="1" height="1" patternUnits="userSpaceOnUse" id="Pattern1238Layer1"><g id="PatternRootContent1"><g id="Pattern1238Layer1background"><rect width="1" height="1" id="Pattern1238Background1" class="color_1 fill_color_1" fill="#ebe8ff"></rect></g></g></pattern><pattern x="0" y="0" width="78" height="76" patternUnits="userSpaceOnUse" id="Pattern1238Layer2" patternTransform="matrix(0.6,0,0,0.6,0,0)"><g id="PatternRootContent2"><g id="Pattern1238Layer2Element2"><use xlink:href="#Pattern1238Element2" x="60.5" y="-55.5" transform="translate(78, -19) scale(1) translate(-78, 19) rotate(90, 78, -19)"></use><use xlink:href="#Pattern1238Element2" x="-17.5" y="-55.5" transform="translate(0, -19) scale(1) translate(0, 19) rotate(90, 0, -19)"></use><use xlink:href="#Pattern1238Element2" x="21.5" y="-17.5" transform="translate(39, 19) scale(1) translate(-39, -19) rotate(90, 39, 19)"></use><use xlink:href="#Pattern1238Element2" x="-56.5" y="-17.5" transform="translate(-39, 19) scale(1) translate(39, -19) rotate(90, -39, 19)"></use><use xlink:href="#Pattern1238Element2" x="99.5" y="-17.5" transform="translate(117, 19) scale(1) translate(-117, -19) rotate(90, 117, 19)"></use><use xlink:href="#Pattern1238Element2" x="60.5" y="20.5" transform="translate(78, 57) scale(1) translate(-78, -57) rotate(90, 78, 57)"></use><use xlink:href="#Pattern1238Element2" x="-17.5" y="20.5" transform="translate(0, 57) scale(1) translate(0, -57) rotate(90, 0, 57)"></use><use xlink:href="#Pattern1238Element2" x="21.5" y="58.5" transform="translate(39, 95) scale(1) translate(-39, -95) rotate(90, 39, 95)"></use><use xlink:href="#Pattern1238Element2" x="21.5" y="58.5" transform="translate(39, 95) scale(1) translate(-39, -95) rotate(90, 39, 95)"></use></g></g></pattern><symbol id="Pattern1238Element2"><g class="color_3 fill_color_3" fill="#c8cce8"><path d="M35,35L0,35L0,0"></path><path d="M0,38L35,38L35,73"></path></g></symbol></defs><rect width="100%" height="100%" id="Pattern1238RctLayer1" fill="url(#Pattern1238Layer1)"></rect><rect width="100%" height="100%" id="Pattern1238RctLayer2" fill="url(#Pattern1238Layer2)"></rect></svg>